<svg width="249" height="49" viewBox="0 0 249 49" fill="none" xmlns="http://www.w3.org/2000/svg">
<g clip-path="url(#clip0_1_3)">
<path d="M58.0001 47.1619C57.9998 47.3491 57.9252 47.5286 57.7927 47.6608C57.6602 47.7931 57.4806 47.8674 57.2933 47.8674H50.5597C50.3723 47.8674 50.1925 47.793 50.06 47.6604C49.9274 47.5279 49.8529 47.3481 49.8529 47.1606C49.8529 46.9732 49.9274 46.7934 50.06 46.6608C50.1925 46.5283 50.3723 46.4538 50.5597 46.4538H54.3597V44.9921H30.2069V46.4551H46.4659C46.6533 46.4551 46.8331 46.5296 46.9657 46.6621C47.0982 46.7947 47.1727 46.9744 47.1727 47.1619C47.1727 47.3493 47.0982 47.5291 46.9657 47.6617C46.8331 47.7942 46.6533 47.8687 46.4659 47.8687H1.70689C1.58417 47.8687 1.46356 47.8368 1.35693 47.776C1.25029 47.7153 1.16132 47.6278 1.09875 47.5222C1.03619 47.4166 1.00219 47.2966 1.0001 47.1739C0.998017 47.0512 1.02792 46.9301 1.08686 46.8224L12.6876 25.6539L4.68546 8.37905C4.60683 8.20897 4.59895 8.01463 4.66356 7.83875C4.72816 7.66286 4.85997 7.51983 5.02999 7.44108L6.99903 6.52845L5.6969 3.71771C5.48366 3.25714 5.46211 2.73072 5.63701 2.25426C5.8119 1.7778 6.1689 1.39033 6.62948 1.17709C7.09006 0.963855 7.61648 0.942313 8.09293 1.11721C8.56939 1.2921 8.95686 1.6491 9.1701 2.10968L25.2777 36.8854C25.3854 37.1137 25.4469 37.361 25.4587 37.6131C25.4704 37.8652 25.4321 38.1172 25.3461 38.3545C25.26 38.5917 25.1278 38.8096 24.9572 38.9956C24.7865 39.1816 24.5808 39.332 24.3518 39.4381C24.1228 39.5442 23.875 39.6039 23.6228 39.6139C23.3706 39.6238 23.1189 39.5838 22.8823 39.496C22.6456 39.4083 22.4287 39.2746 22.2439 39.1026C22.0591 38.9307 21.9102 38.7238 21.8057 38.4941L9.80977 12.5977C9.73099 12.4275 9.72303 12.2331 9.78764 12.057C9.85226 11.881 9.98415 11.7379 10.1543 11.6591C10.3245 11.5803 10.5189 11.5724 10.695 11.637C10.871 11.7016 11.0141 11.8335 11.0929 12.0036L23.0882 37.9C23.144 38.0203 23.2453 38.1135 23.3697 38.1591C23.4942 38.2047 23.6317 38.199 23.752 38.1432C23.8722 38.0874 23.9654 37.9862 24.011 37.8617C24.0567 37.7372 24.0509 37.5997 23.9952 37.4795L7.88633 2.70375C7.85876 2.6442 7.81973 2.59066 7.77147 2.54619C7.72321 2.50173 7.66666 2.4672 7.60506 2.44459C7.54345 2.42198 7.478 2.41172 7.41243 2.4144C7.34686 2.41709 7.28246 2.43266 7.22291 2.46023C7.16336 2.4878 7.10983 2.52683 7.06536 2.57509C7.02089 2.62335 6.98637 2.6799 6.96376 2.7415C6.94114 2.80311 6.93089 2.86856 6.93357 2.93413C6.93625 2.9997 6.95183 3.0641 6.9794 3.12365L9.94467 9.52538C9.98751 9.60998 10.0129 9.70234 10.0193 9.79695C10.0257 9.89157 10.013 9.9865 9.98197 10.0761C9.95093 10.1657 9.90217 10.2482 9.8386 10.3185C9.77503 10.3889 9.69796 10.4457 9.61196 10.4857C9.52596 10.5257 9.4328 10.5479 9.33802 10.5511C9.24324 10.5543 9.14879 10.5384 9.06029 10.5044C8.97179 10.4703 8.89104 10.4188 8.82286 10.3529C8.75468 10.287 8.70046 10.208 8.66343 10.1207L7.5931 7.81158L6.2631 8.42655L14.1202 25.3841C14.1667 25.4846 14.189 25.5945 14.1852 25.7052C14.1815 25.8158 14.1519 25.9241 14.0987 26.0212L2.90009 46.4551H28.7933V44.2853C28.7933 44.0978 28.8678 43.9181 29.0003 43.7855C29.1329 43.653 29.3127 43.5785 29.5001 43.5785H55.0659C55.2534 43.5785 55.4331 43.653 55.5657 43.7855C55.6982 43.9181 55.7727 44.0978 55.7727 44.2853V46.4551H57.2927C57.3856 46.455 57.4776 46.4732 57.5634 46.5087C57.6492 46.5442 57.7272 46.5962 57.7929 46.6619C57.8586 46.7275 57.9107 46.8055 57.9463 46.8913C57.9818 46.9771 58.0001 47.069 58.0001 47.1619ZM18.007 16.9658C18.0449 17.0506 18.0991 17.127 18.1666 17.1908C18.2341 17.2546 18.3135 17.3044 18.4003 17.3375C18.487 17.3706 18.5795 17.3862 18.6723 17.3835C18.7651 17.3808 18.8565 17.3598 18.9412 17.3217L22.1591 15.8796C22.3302 15.8029 22.4638 15.6614 22.5306 15.4863C22.5973 15.3111 22.5918 15.1165 22.5151 14.9455C22.4384 14.7744 22.2969 14.6408 22.1217 14.574C21.9465 14.5073 21.752 14.5128 21.5809 14.5895L18.3629 16.0316C18.2782 16.0696 18.2018 16.1239 18.1381 16.1914C18.0743 16.2588 18.0245 16.3382 17.9915 16.425C17.9584 16.5117 17.9428 16.6041 17.9454 16.6969C17.9481 16.7897 17.969 16.8811 18.007 16.9658ZM17.0304 13.9771C17.1825 14.0867 17.3719 14.1315 17.557 14.1017C17.742 14.0719 17.9078 13.9699 18.0178 13.8181L20.0837 10.9605C20.1936 10.8086 20.2386 10.6192 20.2088 10.4341C20.1791 10.249 20.077 10.0833 19.9251 9.97347C19.7731 9.86362 19.5838 9.81862 19.3987 9.84837C19.2136 9.87812 19.0479 9.98019 18.938 10.1321L16.8721 12.9904C16.7623 13.1422 16.7172 13.3315 16.7469 13.5165C16.7766 13.7015 16.8786 13.8672 17.0304 13.9771ZM19.5872 19.6834C19.5777 19.7759 19.5866 19.8694 19.6133 19.9585C19.6401 20.0475 19.6841 20.1305 19.743 20.2025C19.8018 20.2745 19.8743 20.3342 19.9562 20.3781C20.0382 20.4221 20.128 20.4494 20.2205 20.4586L23.7285 20.819C23.7523 20.8219 23.7762 20.8236 23.8001 20.8241C23.981 20.8235 24.1548 20.7536 24.2858 20.6287C24.4167 20.5038 24.4947 20.3335 24.5038 20.1528C24.5129 19.9721 24.4523 19.7948 24.3346 19.6574C24.2169 19.52 24.051 19.433 23.871 19.4143L20.363 19.0507C20.2705 19.0412 20.1769 19.05 20.0878 19.0767C19.9986 19.1034 19.9156 19.1474 19.8436 19.2063C19.7715 19.2651 19.7117 19.3376 19.6677 19.4196C19.6237 19.5016 19.5964 19.5908 19.5872 19.6834Z" fill="black" stroke="black" stroke-width="0.5"/>
<path d="M52.712 37H43.048V12.872H52.008C54.1627 12.8933 55.8907 13.3733 57.192 14.312C58.5147 15.2507 59.176 16.872 59.176 19.176C59.176 20.264 58.9733 21.2347 58.568 22.088C58.184 22.9413 57.5013 23.6133 56.52 24.104V24.136C58.248 24.3707 59.496 25.0427 60.264 26.152C61.0533 27.24 61.448 28.6267 61.448 30.312C61.448 32.8293 60.5413 34.5787 58.728 35.56C56.936 36.52 54.9307 37 52.712 37ZM49.32 27.016V32.2H50.12C50.1413 32.2213 50.1627 32.232 50.184 32.232C50.2267 32.232 50.2693 32.232 50.312 32.232C50.568 32.232 50.8347 32.232 51.112 32.232C51.3893 32.232 51.6667 32.2213 51.944 32.2C52.7333 32.136 53.4587 31.9333 54.12 31.592C54.7813 31.2507 55.112 30.6107 55.112 29.672C55.112 28.584 54.7493 27.88 54.024 27.56C53.2987 27.24 52.5093 27.0693 51.656 27.048C51.464 27.048 51.2613 27.048 51.048 27.048C50.856 27.048 50.664 27.048 50.472 27.048C50.3867 27.048 50.3013 27.048 50.216 27.048C50.1307 27.048 50.0453 27.048 49.96 27.048L49.32 27.016ZM49.32 17.672V22.344H50.024C50.0453 22.3653 50.0667 22.376 50.088 22.376C50.1307 22.376 50.1733 22.376 50.216 22.376C51.0053 22.3547 51.7307 22.2053 52.392 21.928C53.0747 21.6507 53.416 21.0213 53.416 20.04C53.416 19.0587 53.096 18.4293 52.456 18.152C51.816 17.8747 51.1227 17.7253 50.376 17.704C50.2693 17.704 50.1627 17.704 50.056 17.704C49.9707 17.704 49.8747 17.704 49.768 17.704L49.32 17.672ZM73.2483 20.04C75.8936 20.0613 78.1976 20.84 80.1603 22.376C82.1443 23.8907 83.1363 26.0453 83.1363 28.84C83.1363 31.6133 82.1443 33.7573 80.1603 35.272C78.1976 36.7867 75.8936 37.544 73.2483 37.544C70.6243 37.544 68.3203 36.7973 66.3363 35.304C64.3523 33.7893 63.3603 31.6347 63.3603 28.84C63.3603 26.0453 64.3416 23.8907 66.3043 22.376C68.2883 20.84 70.6029 20.072 73.2483 20.072V20.04ZM73.2483 25.096C72.0749 25.1173 71.1576 25.5013 70.4963 26.248C69.8349 26.9733 69.5043 27.8373 69.5043 28.84C69.5043 29.8853 69.8349 30.76 70.4963 31.464C71.1576 32.168 72.0749 32.52 73.2483 32.52C74.4429 32.52 75.3603 32.168 76.0003 31.464C76.6616 30.76 76.9923 29.8853 76.9923 28.84C76.9923 27.8373 76.6616 26.9733 76.0003 26.248C75.3603 25.5013 74.4429 25.128 73.2483 25.128V25.096ZM91.5878 20.584V22.696H91.6518C92.3344 21.7147 93.0918 21.032 93.9238 20.648C94.7771 20.264 95.7691 20.072 96.8998 20.072C99.1184 20.072 100.697 20.7013 101.636 21.96C102.596 23.2187 103.076 24.8613 103.076 26.888V37H97.2518V29C97.2518 28.9573 97.2518 28.904 97.2518 28.84C97.2518 28.776 97.2518 28.712 97.2518 28.648C97.2518 28.456 97.2518 28.2533 97.2518 28.04C97.2518 27.8267 97.2411 27.6133 97.2198 27.4C97.1771 26.7387 96.9851 26.1307 96.6438 25.576C96.3024 25 95.6304 24.712 94.6278 24.712C93.4544 24.712 92.6544 25.096 92.2278 25.864C91.8011 26.6107 91.5878 27.496 91.5878 28.52V37H85.7638V20.584H91.5878ZM135.265 13.448V20.968C134.625 20.1147 133.814 19.464 132.833 19.016C131.851 18.568 130.827 18.344 129.761 18.344C127.841 18.344 126.283 18.9947 125.089 20.296C123.915 21.576 123.329 23.1547 123.329 25.032C123.329 26.9307 123.926 28.4987 125.121 29.736C126.337 30.9733 127.915 31.592 129.857 31.592C130.881 31.592 131.873 31.368 132.833 30.92C133.793 30.4507 134.603 29.8213 135.265 29.032V36.52C134.689 36.712 134.145 36.872 133.633 37C133.121 37.1493 132.619 37.2773 132.129 37.384C131.745 37.4693 131.35 37.5333 130.945 37.576C130.561 37.6187 130.155 37.64 129.729 37.64C128.043 37.64 126.422 37.3413 124.865 36.744C123.329 36.1253 121.931 35.2507 120.673 34.12C119.35 32.9253 118.369 31.56 117.729 30.024C117.11 28.4667 116.801 26.792 116.801 25C116.801 23.3573 117.099 21.768 117.697 20.232C118.315 18.696 119.201 17.3413 120.353 16.168C121.505 14.9947 122.859 14.0667 124.417 13.384C125.974 12.68 127.585 12.3067 129.249 12.264C129.291 12.264 129.334 12.264 129.377 12.264C129.441 12.264 129.494 12.264 129.537 12.264C130.539 12.264 131.51 12.3707 132.449 12.584C133.409 12.7973 134.347 13.096 135.265 13.48V13.448ZM147.686 20.04C150.331 20.0613 152.635 20.84 154.598 22.376C156.582 23.8907 157.574 26.0453 157.574 28.84C157.574 31.6133 156.582 33.7573 154.598 35.272C152.635 36.7867 150.331 37.544 147.686 37.544C145.062 37.544 142.758 36.7973 140.774 35.304C138.79 33.7893 137.798 31.6347 137.798 28.84C137.798 26.0453 138.779 23.8907 140.742 22.376C142.726 20.84 145.04 20.072 147.686 20.072V20.04ZM147.686 25.096C146.512 25.1173 145.595 25.5013 144.934 26.248C144.272 26.9733 143.942 27.8373 143.942 28.84C143.942 29.8853 144.272 30.76 144.934 31.464C145.595 32.168 146.512 32.52 147.686 32.52C148.88 32.52 149.798 32.168 150.438 31.464C151.099 30.76 151.43 29.8853 151.43 28.84C151.43 27.8373 151.099 26.9733 150.438 26.248C149.798 25.5013 148.88 25.128 147.686 25.128V25.096ZM164.265 20.584L168.361 29.48L172.489 20.584H175.945L180.073 29.48L184.201 20.584H190.633L182.057 37H178.281L174.217 28.008L170.153 37H166.377L157.801 20.584H164.265ZM200.748 20.04C203.394 20.0613 205.698 20.84 207.66 22.376C209.644 23.8907 210.636 26.0453 210.636 28.84C210.636 31.6133 209.644 33.7573 207.66 35.272C205.698 36.7867 203.394 37.544 200.748 37.544C198.124 37.544 195.82 36.7973 193.836 35.304C191.852 33.7893 190.86 31.6347 190.86 28.84C190.86 26.0453 191.842 23.8907 193.804 22.376C195.788 20.84 198.103 20.072 200.748 20.072V20.04ZM200.748 25.096C199.575 25.1173 198.658 25.5013 197.996 26.248C197.335 26.9733 197.004 27.8373 197.004 28.84C197.004 29.8853 197.335 30.76 197.996 31.464C198.658 32.168 199.575 32.52 200.748 32.52C201.943 32.52 202.86 32.168 203.5 31.464C204.162 30.76 204.492 29.8853 204.492 28.84C204.492 27.8373 204.162 26.9733 203.5 26.248C202.86 25.5013 201.943 25.128 200.748 25.128V25.096ZM219.088 20.584V23.272H219.152C219.706 22.2907 220.442 21.5653 221.36 21.096C222.298 20.6267 223.333 20.392 224.464 20.392L225.584 20.36V25.96C225.498 25.9387 225.413 25.9067 225.328 25.864C225.264 25.8213 225.189 25.7893 225.104 25.768C224.784 25.64 224.464 25.5547 224.144 25.512C223.824 25.4693 223.482 25.448 223.12 25.448C221.498 25.448 220.421 25.928 219.888 26.888C219.354 27.8267 219.088 29 219.088 30.408V37H213.264V20.584H219.088ZM233.588 10.44V26.504L239.636 20.584H247.604L239.38 28.168L248.116 37H239.956L233.588 30.312V37H227.764V10.44H233.588Z" fill="black"/>
</g>
<defs>
<clipPath id="clip0_1_3">
<rect width="249" height="49" fill="white"/>
</clipPath>
</defs>
</svg>
